<svg xmlns="http://www.w3.org/2000/svg" width="600" height="110" viewBox="0 0 600 110" preserveAspectRatio="none"><defs><filter id="edge" x="-10%" y="-15%" width="120%" height="130%"><feTurbulence type="fractalNoise" baseFrequency=".42 .75" numOctaves="3" seed="12" result="noise"/><feDisplacementMap in="SourceGraphic" in2="noise" scale="10" xChannelSelector="R" yChannelSelector="G"/></filter><mask id="dry"><rect width="600" height="110" fill="white"/><g stroke="#000" stroke-width="1.1" opacity=".5"><path d="M0 13h90m-80 7h100M8 29h50M2 88h102m-84 6h90M495 12h85m-85 6h93M540 79h65m-73 6h70M4 63h25M200 8h110M190 97h142M460 96h104"/></g><filter id="grain"><feTurbulence type="fractalNoise" baseFrequency=".65" numOctaves="3" stitchTiles="stitch"/><feColorMatrix type="matrix" values="0 0 0 0 0 0 0 0 0 0 0 0 0 0 0 0 0 0 2.2 -1.2"/></filter><rect width="600" height="110" filter="url(#grain)" opacity=".5"/></mask></defs><g filter="url(#edge)" mask="url(#dry)"><path fill="#ffdc35" d="M20 12 165 8 287 11 426 9 527 20 553 29 548 37 578 44 570 51 596 58 580 66 592 75 568 77 579 86 538 87 537 96 350 98 199 94 70 100 12 91 22 77 9 66 18 56 9 41 22 29Z"/><g stroke="#f5c729" stroke-width="2" opacity=".4"><path d="M8 22 507 21M10 40 552 37M19 82 563 85M35 92 522 91M50 16 398 14"/></g></g></svg>
