<svg xmlns="http://www.w3.org/2000/svg" width="1448" height="1086" viewBox="0 0 1448 1086"><defs><linearGradient id="falloff"><stop stop-color="white" stop-opacity="0"/><stop offset=".2" stop-color="white" stop-opacity=".8"/><stop offset=".6" stop-color="white"/><stop offset="1" stop-color="white" stop-opacity="0"/></linearGradient></defs><g stroke="url(#falloff)" stroke-width="3" stroke-linecap="round" fill="none"><path d="M786 105 Q804 93 847 82 L1039 40"/><path d="M1060 40 C1008 56 992 137 1017 253 C1025 304 1045 351 1057 392 Q1082 482 992 520"/><path d="M1143 414 Q1174 465 1216 467 Q1260 465 1335 456"/><path d="M1446 417 Q1417 451 1387 450"/><path d="M1008 527 Q1128 556 1299 592"/><path d="M1284 716 Q1265 865 1166 964 Q1057 1070 980 972"/></g></svg>